<?xml version="1.0" encoding="UTF-8" standalone="no"?>
<svg
   xmlns:dc="http://purl.org/dc/elements/1.1/"
   xmlns:cc="http://creativecommons.org/ns#"
   xmlns:rdf="http://www.w3.org/1999/02/22-rdf-syntax-ns#"
   xmlns:svg="http://www.w3.org/2000/svg"
   xmlns="http://www.w3.org/2000/svg"
   xmlns:sodipodi="http://sodipodi.sourceforge.net/DTD/sodipodi-0.dtd"
   xmlns:inkscape="http://www.inkscape.org/namespaces/inkscape"
   width="100%"
   height="100%"
   viewBox="0 0 485.8 328.51"
   fill="none"
   aria-labelledby="theLogoID"
   role="img"
   version="1.1"
   id="svg11"
   sodipodi:docname="trisquel_theLogo.svg"
   inkscape:version="1.0.1 (3bc2e81, 2020-09-07)">
  <metadata
     id="metadata17">
    <rdf:RDF>
      <cc:Work
         rdf:about="">
        <dc:format>image/svg+xml</dc:format>
        <dc:type
           rdf:resource="http://purl.org/dc/dcmitype/StillImage" />
        <dc:title>The Logo</dc:title>
      </cc:Work>
    </rdf:RDF>
  </metadata>
  <defs
     id="defs15" />
  <sodipodi:namedview
     pagecolor="#ffffff"
     bordercolor="#666666"
     borderopacity="1"
     objecttolerance="10"
     gridtolerance="10"
     guidetolerance="10"
     inkscape:pageopacity="0"
     inkscape:pageshadow="2"
     inkscape:window-width="1920"
     inkscape:window-height="1014"
     id="namedview13"
     showgrid="false"
     inkscape:zoom="0.54115914"
     inkscape:cx="242.9"
     inkscape:cy="164.255"
     inkscape:window-x="960"
     inkscape:window-y="0"
     inkscape:window-maximized="1"
     inkscape:current-layer="svg11" />
  <title
     id="theLogoID">The Logo</title>
  <g
     data-name="Layer 2"
     id="g9" />
  <path
     id="path7116"
     d="M 197.04875,168.25029 350.41,131.88 c 0.1773,-0.17113 0.52105,-0.55804 0.67461,-0.70394 14.90933,-14.16632 22.51971,-32.22282 23.61133,-55.845968 0.35058,-7.584789 0.26063,-9.596678 -0.89948,-13.844157 -0.74577,-2.730124 -1.89732,-7.138186 -2.47357,-9.620524 -1.76636,-7.60813 -7.02685,-17.758499 -12.14297,-23.230053 -2.46515,-2.636391 -5.49661,-5.312202 -6.74611,-6.100829 -1.24955,-0.788606 -4.72334,-3.442595 -7.64556,-5.631523 -2.9223,-2.18893 -6.29557,-4.236764 -7.64558,-4.692936 -1.35001,-0.456151 -4.32052,-1.877264 -6.52122,-3.285046 -3.82056,-2.443951 -4.35651,-2.802497 -12.14296,-3.285066 -7.75371,-0.480546 -8.65317,-0.300031 -17.09013,1.877175 -4.88038,1.259406 -10.55849,3.229191 -12.5927,4.223654 -2.03434,0.994462 -5.46273,2.520791 -7.64559,3.519697 -2.34212,1.07185 -4.07684,2.269463 -4.27251,3.050414 -0.18236,0.727824 -1.41933,1.944641 -2.69844,2.581109 -1.27901,0.636467 -2.24869,1.488778 -2.24869,1.877174 0,0.388396 -1.21366,1.321352 -2.69846,2.111827 -2.18441,1.162835 -3.18272,2.466237 -4.94713,6.335461 -1.19946,2.630141 -2.75867,5.50147 -3.59792,6.570109 -0.83926,1.068662 -2.03363,3.85433 -2.47355,6.100829 -0.43995,2.246499 -1.10066,4.577205 -1.57411,5.162241 -1.70424,2.105975 -1.6991,9.831992 0,19.241029 1.42623,7.897733 1.8632,9.639673 4.94715,15.252073 3.75401,6.83158 8.00934,11.16243 14.61654,15.48667 5.45021,3.56701 14.11496,5.20542 20.91289,3.989 8.35215,-1.49449 13.23207,-4.06836 18.21446,-9.38587 6.45775,-6.89211 8.91218,-11.92055 9.44453,-20.648914 0.48501,-7.950373 -0.73856,-12.831811 -4.04766,-17.59853 -2.15766,-3.108115 -8.84289,-8.218901 -9.21966,-7.039414 -0.12986,0.406566 0.79797,2.110463 2.24871,3.754348 1.45073,1.643909 3.67009,4.943229 4.94712,7.274068 2.03452,3.71361 2.45906,4.793203 2.69844,10.089808 0.23804,5.269394 0.11236,6.689737 -1.34921,10.089824 -3.24885,7.55773 -9.63644,12.94962 -18.66421,16.19064 -4.56595,1.63922 -8.07743,1.7962 -15.29114,0.46929 -6.19936,-1.14033 -9.71339,-3.15168 -13.04246,-7.50871 -2.48315,-3.24997 -3.3423,-4.75217 -5.8466,-11.02839 -4.40209,-11.032419 -4.8102,-16.187775 -2.02383,-22.760745 0.7307,-1.723739 1.3492,-4.250405 1.3492,-5.396894 0,-1.930454 2.78053,-6.851751 4.27254,-7.508698 1.07706,-0.474189 4.4974,-4.558332 4.4974,-5.396872 0,-0.800484 3.23165,-3.53558 10.56887,-9.151243 7.76409,-5.942333 17.56749,-8.312087 31.03204,-7.039394 6.47879,0.61238 8.22068,1.146292 12.36786,3.285045 11.43432,5.896885 21.48474,18.117483 23.38645,28.626924 0.53566,2.960487 1.44155,6.333808 2.02383,7.508698 1.42917,2.883912 0.62107,11.456718 -1.34922,15.486701 -0.78407,1.603678 -1.6477,5.161278 -2.02382,7.743358 -0.51112,3.50979 -1.29776,5.21432 -2.69844,6.80475 -2.05471,2.3332 -5.67228,8.71384 -8.09533,14.07883 -2.01195,4.45454 -7.42229,10.08456 -12.14296,12.67093 -2.05579,1.12627 -4.41981,2.57954 -5.17201,3.28503 -0.75216,0.70553 -2.85809,1.95561 -4.72225,2.81577 -1.86421,0.8602 -5.07889,2.67847 -6.97098,3.98901 -5.94921,4.12076 -11.08885,5.1911 -24.73568,5.16223 -14.32982,-0.0299 -21.72465,-1.18175 -28.10874,-4.22366 -3.96112,-1.88736 -5.94062,-3.44861 -12.14298,-10.0898 -8.42841,-9.02472 -13.10514,-15.26344 -17.98957,-23.93399 -15.27426,-27.114006 -27.07985,-37.066592 -56.89209,-48.571903 -4.40842,-1.701345 -10.89752,-2.475784 -23.16156,-2.815762 -11.59643,-0.321479 -11.6922,-0.448891 -21.13779,2.111827 -13.62307,3.693217 -21.28491,8.146024 -33.28074,18.537093 -3.709939,3.213683 -6.374017,6.301759 -10.344015,12.436287 -6.68946,10.336958 -7.159297,11.312198 -8.095314,17.363878 -1.135442,7.34081 -2.286529,21.4683 -1.798954,22.29146 0.233115,0.39352 0.556776,3.06354 0.674602,5.86617 0.117844,2.80263 0.837116,8.92929 1.574101,13.60952 1.986879,12.61808 3.494153,15.41227 13.717063,24.40329 5.956397,5.23865 9.136347,7.51653 11.468347,8.21263 1.74955,0.52223 5.8558,2.03388 9.21967,3.28507 7.62661,2.83664 13.39331,3.36981 23.38648,2.5811 9.13161,-0.7207 11.5684,-1.38495 18.43932,-5.16224 9.58006,-5.26671 14.90461,-9.39852 17.76472,-14.07881 3.13682,-5.13311 5.77244,-13.38305 6.97096,-21.5875 1.05459,-7.21941 0.48412,-10.06548 -4.27253,-19.71035 -3.9848,-8.07984 -6.31998,-10.56386 -14.39166,-14.78276 -6.93803,-3.62643 -8.16948,-3.6495 -16.19065,-2.81576 -6.16921,0.64124 -10.86136,2.38835 -15.51601,6.10081 -4.129,3.29317 -6.2356,6.38447 -8.3202,12.43628 -1.45718,4.23069 -1.66726,9.8552 -0.44972,9.8552 0.30686,0 1.44629,-2.86209 2.69844,-6.33548 1.25206,-3.47338 2.88976,-7.20083 3.59791,-8.21264 0.70821,-1.01183 3.93509,-3.21684 7.19583,-4.92759 6.69818,-3.51423 13.1239,-4.67095 17.98961,-3.0504 2.79282,0.93016 12.34214,7.08684 15.06626,9.6205 4.38085,4.07453 6.95076,10.96787 6.97097,18.53712 0.0325,12.21169 -4.0159,21.1061 -11.69324,25.81117 -1.68189,1.03079 -4.45575,2.728 -6.29634,3.98899 -4.72495,3.23701 -9.24729,4.04736 -19.78855,3.5197 -7.64383,-0.3826 -9.7744,-0.57586 -15.06629,-2.5811 -11.337,-4.2959 -21.5783,-13.23821 -25.41029,-22.05681 -4.540674,-10.44961 -4.989364,-12.78117 -4.497388,-23.46468 0.433011,-9.40097 1.952658,-17.09513 4.497388,-22.05683 1.76415,-3.43962 6.28033,-8.74593 13.94194,-16.894589 2.987,-3.176946 8.88057,-6.003973 15.06627,-7.274046 7.22513,-1.483522 23.92981,-2.462166 29.00822,-1.642524 13.24798,2.13816 35.61155,18.296179 43.39987,31.442679 3.75898,6.34501 7.30497,13.69875 8.76995,18.06781 1.92883,5.7528 2.62804,20.88311 1.12432,26.28045 -0.61407,2.20429 -1.12022,5.30473 -1.12432,6.80477 -0.009,3.57269 -1.40765,8.03067 -4.27255,14.0788 -0.71786,1.51547 -1.31765,3.4731 -2.02383,5.39691 z"
     style="display:inline;overflow:visible;visibility:visible;opacity:0.797468;fill:#1a1a1a;fill-opacity:1;fill-rule:nonzero;stroke:none;stroke-width:7.3506;stroke-linecap:butt;stroke-linejoin:miter;stroke-miterlimit:0;stroke-dasharray:none;stroke-dashoffset:0;stroke-opacity:1;marker:none" />
  <path
     id="path8099"
     d="m 197.04875,168.25029 c -0.5522,1.50432 -1.27051,3.11117 -1.57409,4.22363 -0.69181,2.5351 -1.56948,5.04653 -2.02383,5.63152 -0.4544,0.58501 -1.0883,2.15463 -1.3492,3.51972 -0.69059,3.61317 -2.9287,11.16218 -3.8228,12.90556 -1.06246,2.07142 -3.19884,11.63159 -4.27251,19.0064 -0.86529,5.94355 -1.02821,19.07717 -0.22489,25.57652 1.01661,8.22456 3.83828,22.83901 4.72228,24.63793 7.78063,15.83333 11.4623,21.38381 17.98957,26.74976 1.64193,1.34973 3.69008,3.31634 4.4974,4.45828 3.08126,4.35795 11.87664,10.61644 20.9129,15.0174 3.90946,1.90405 12.6794,4.26494 20.68804,5.39687 3.36384,0.47546 6.5017,0.89113 7.19583,0.93858 2.02226,0.13838 10.66867,-2.1508 15.29114,-3.98897 2.34006,-0.93052 5.09308,-1.64255 6.07148,-1.64255 2.02209,0 8.37148,-3.58753 11.69325,-6.57011 1.22511,-1.10003 3.33094,-2.53927 4.72225,-3.28504 1.39123,-0.74578 5.05873,-3.54962 8.09533,-6.33548 6.71621,-6.16142 8.46044,-10.07283 11.9181,-24.40327 2.2141,-9.17615 2.37973,-10.08881 1.79897,-15.95599 -0.33889,-3.42258 -0.87497,-8.57259 -1.12436,-11.4977 -0.51761,-6.0728 -4.07473,-15.00484 -8.99479,-22.52612 -2.67836,-4.09437 -9.73406,-10.1666 -17.76473,-15.48668 -8.7818,-5.81771 -22.88735,-7.0549 -34.62995,-2.81576 -4.26573,1.53996 -5.97849,2.60784 -9.21967,5.86616 -2.19575,2.20751 -4.75964,5.52002 -5.62175,7.27406 -0.86211,1.75403 -2.66926,5.16861 -3.82279,7.5087 -2.00043,4.05803 -2.02384,4.55486 -2.02381,12.67094 0,8.16108 0.13091,8.62323 2.24869,13.14022 2.94125,6.27327 8.49653,11.83977 14.84142,14.54812 6.3433,2.70764 15.94458,3.32244 20.01341,1.40787 2.88051,-1.35538 3.69829,-2.90369 1.12435,-2.11183 -4.38309,1.34848 -9.17093,1.08015 -14.16681,-0.46928 -6.87942,-2.13361 -9.31964,-3.5187 -12.36784,-7.03941 -3.82177,-4.41416 -5.14876,-8.27414 -5.84662,-16.65993 -0.57099,-6.86103 -0.50364,-7.76288 1.12435,-13.14024 1.41817,-4.68447 2.12448,-6.41167 4.72227,-9.15122 2.92346,-3.08293 7.6687,-6.4509 11.24351,-8.44729 2.90773,-1.6238 9.80313,-2.218 14.61653,-1.17324 2.50673,0.54409 5.21959,0.92022 6.07149,0.93859 5.11798,0.11021 18.04072,9.73181 20.68802,15.4867 0.8648,1.87995 2.22216,4.91233 3.14818,6.80477 1.26862,2.59242 1.81793,5.37192 2.24869,10.79374 1.12431,14.15193 0.55466,22.26251 -1.79896,26.28046 -0.45686,0.78005 -1.39101,3.11525 -2.02383,5.16223 -1.33992,4.33401 -5.87405,11.00085 -9.21965,13.60952 -4.46385,3.48058 -12.86212,8.68095 -16.4155,10.08983 -5.78002,2.29169 -15.81348,3.5371 -20.23828,2.58111 -2.04079,-0.44091 -4.18462,-1.14882 -4.94715,-1.64252 -0.76252,-0.4937 -2.95504,-1.17482 -4.72228,-1.40789 -5.04565,-0.66542 -13.41176,-5.40958 -15.74087,-8.91659 -1.07162,-1.61359 -3.39102,-4.07552 -5.17201,-5.63153 -1.94542,-1.6996 -3.56794,-3.88029 -4.04765,-5.39687 -0.89353,-2.82515 -4.67912,-10.12723 -6.97098,-13.37488 -1.76742,-2.50457 -3.5622,-6.59578 -4.4974,-10.55911 -0.60306,-2.55583 -0.96687,-22.82439 -0.6746,-34.25844 0.11868,-4.64245 1.83317,-10.08524 4.04764,-12.67093 0.66816,-0.78003 1.82539,-2.70321 2.69844,-4.4583 5.53353,-11.1238 12.7454,-20.76722 18.88908,-25.34186 3.63283,-2.70507 5.62364,-3.71904 11.91811,-5.39689 17.59551,-4.69022 19.30253,-4.92758 34.62995,-4.92758 15.67051,0 25.35933,-1.45168 31.70664,-4.92757 2.07681,-1.13728 6.22951,-3.18799 9.21967,-4.69296 8.16548,-4.10976 14.74649,-8.85234 20.23828,-14.54809 2.4909,-2.58343 5.66475,-5.83301 7.64559,-7.74336 z"
     style="display:inline;overflow:visible;visibility:visible;opacity:0.8;fill:#1a1a1a;fill-opacity:1;fill-rule:nonzero;stroke:none;stroke-width:7.3506;stroke-linecap:butt;stroke-linejoin:miter;stroke-miterlimit:0;stroke-dasharray:none;stroke-dashoffset:0;stroke-opacity:1;marker:none" />
</svg>
