<?xml version="1.0" encoding="UTF-8" standalone="no"?>
<svg
   xmlns:dc="http://purl.org/dc/elements/1.1/"
   xmlns:cc="http://creativecommons.org/ns#"
   xmlns:rdf="http://www.w3.org/1999/02/22-rdf-syntax-ns#"
   xmlns:svg="http://www.w3.org/2000/svg"
   xmlns="http://www.w3.org/2000/svg"
   xmlns:sodipodi="http://sodipodi.sourceforge.net/DTD/sodipodi-0.dtd"
   xmlns:inkscape="http://www.inkscape.org/namespaces/inkscape"
   width="100%"
   height="100%"
   viewBox="0 0 664.81 768"
   fill="none"
   aria-labelledby="theLogoFullWhiteID"
   role="img"
   version="1.1"
   id="svg11"
   sodipodi:docname="trisquel_theLogo--full--white.svg"
   inkscape:version="1.0.1 (3bc2e81, 2020-09-07)">
  <metadata
     id="metadata17">
    <rdf:RDF>
      <cc:Work
         rdf:about="">
        <dc:format>image/svg+xml</dc:format>
        <dc:type
           rdf:resource="http://purl.org/dc/dcmitype/StillImage" />
        <dc:title>Full white logo</dc:title>
      </cc:Work>
    </rdf:RDF>
  </metadata>
  <defs
     id="defs15" />
  <sodipodi:namedview
     pagecolor="#ffffff"
     bordercolor="#666666"
     borderopacity="1"
     objecttolerance="10"
     gridtolerance="10"
     guidetolerance="10"
     inkscape:pageopacity="0"
     inkscape:pageshadow="2"
     inkscape:window-width="960"
     inkscape:window-height="509"
     id="namedview13"
     showgrid="true"
     inkscape:zoom="0.41053452"
     inkscape:cx="332.405"
     inkscape:cy="407.29813"
     inkscape:window-x="0"
     inkscape:window-y="270"
     inkscape:window-maximized="1"
     inkscape:current-layer="svg11">
    <inkscape:grid
       type="xygrid"
       id="grid19" />
  </sodipodi:namedview>
  <title
     id="theLogoFullWhiteID">Full white logo</title>
  <g
     data-name="Layer 2"
     id="g9"
     style="fill:#e6e6e6">
    <g
       data-name="Layer 1"
       id="g7"
       style="fill:#e6e6e6">
      <path
         d="M650.72 568L332.41 751.74 14.09 568v-62.81L0 505.34v70.74L332.41 768l332.4-191.92v-51.67q-7-.76-14.09-1.44zM14.11 200.05L332.43 16.28l318.31 183.77v142.3a.31.31 0 00.07.18.29.29 0 00.14.13.34.34 0 00.2 0 .48.48 0 00.18-.08c2-1.85 8.59-7.76 12.25-8.6a1.49 1.49 0 00.85-.52 1.46 1.46 0 00.36-.93V191.92L332.43 0l-3.53 2L0 191.93v35.25a.94.94 0 00.07.37 1 1 0 00.21.3.79.79 0 00.31.2.86.86 0 00.36.07c2.89 0 9.88 1.46 12.3 2a.76.76 0 00.3 0 .92.92 0 00.28-.14.72.72 0 00.19-.24.66.66 0 00.07-.3z"
         fill="#efefef"
         id="path3"
         style="fill:#e6e6e6" />
    </g>
  </g>
  <path
     id="path7116"
     d="m 280,422 272.27409,-62.55034 c 0.31476,-0.29434 0.92506,-0.95974 1.19768,-1.21068 26.4697,-24.36352 39.98099,-55.41743 41.91902,-96.04501 0.62241,-13.04448 0.46271,-16.50457 -1.59692,-23.80947 -1.32403,-4.69536 -3.36846,-12.27639 -4.3915,-16.54557 -3.13597,-13.08462 -12.47534,-30.54143 -21.55837,-39.95152 -4.37657,-4.53412 -9.75856,-9.13603 -11.97688,-10.49233 -2.21843,-1.35626 -8.38572,-5.92064 -13.57376,-9.68521 -5.18818,-3.76456 -11.17701,-7.28647 -13.57379,-8.071 -2.39678,-0.7845 -7.67056,-3.22856 -11.57764,-5.64969 -6.78293,-4.20316 -7.73445,-4.81979 -21.55833,-5.64973 -13.76576,-0.82645 -15.36264,-0.51599 -30.34142,3.22841 -8.66452,2.16595 -18.74528,5.55363 -22.3568,7.26392 -3.61171,1.7103 -9.69842,4.33531 -13.5738,6.05325 -4.15814,1.84339 -7.23793,3.90307 -7.58533,5.24616 -0.32375,1.25173 -2.51984,3.34444 -4.79075,4.43905 -2.27072,1.09461 -3.99227,2.56043 -3.9923,3.2284 0,0.66797 -2.15466,2.27249 -4.79075,3.63197 -3.87815,1.99986 -5.65052,4.24148 -8.78301,10.89585 -2.12951,4.52333 -4.89767,9.46154 -6.38766,11.29941 -1.49002,1.8379 -3.61047,6.62875 -4.39154,10.49233 -0.78104,3.86357 -1.95405,7.87197 -2.79459,8.87812 -3.02571,3.6219 -3.01654,16.90926 0,33.09112 2.53207,13.58264 3.30787,16.57849 8.78305,26.23078 6.66477,11.74913 14.2196,19.19741 25.94987,26.63435 9.67618,6.13462 25.0594,8.95231 37.12828,6.86036 14.82821,-2.5703 23.4919,-6.99686 32.33753,-16.14201 11.46495,-11.85321 15.82251,-20.50124 16.76762,-35.51247 0.86106,-13.67318 -1.31123,-22.06838 -7.18613,-30.26627 -3.83066,-5.3454 -15.69949,-14.13504 -16.36839,-12.10654 -0.23055,0.69923 1.4167,3.62962 3.99231,6.45681 2.5756,2.82723 6.51581,8.50147 8.78301,12.51009 3.61204,6.38674 4.36576,8.24345 4.79074,17.35266 0.42263,9.06241 0.19949,11.50511 -2.39535,17.35269 -5.76794,12.99791 -17.10832,22.27101 -33.13601,27.84499 -8.10629,2.81917 -14.34049,3.08914 -27.14755,0.80708 -11.0062,-1.9612 -17.24493,-5.42031 -23.15528,-12.91361 -4.40854,-5.58942 -5.93385,-8.17293 -10.37993,-18.96686 -7.81536,-18.97378 -8.53992,-27.84007 -3.59306,-39.14443 1.29727,-2.96449 2.39535,-7.3099 2.39535,-9.28165 0,-3.32004 4.93649,-11.78379 7.58537,-12.91362 1.91217,-0.81552 7.98458,-7.83951 7.98458,-9.28165 0,-1.37672 5.73739,-6.08056 18.76373,-15.73849 13.78418,-10.21975 31.18893,-14.2953 55.09358,-12.10649 11.5023,1.05318 14.59481,1.97141 21.95761,5.64968 20.30024,10.14159 38.14353,31.15882 41.51978,49.23317 0.95099,5.09151 2.55928,10.89301 3.59307,12.91361 2.53731,4.95981 1.10264,19.7035 -2.3954,26.63435 -1.39199,2.75803 -2.92528,8.87646 -3.59303,13.31717 -0.90742,6.03622 -2.30403,8.96772 -4.79074,11.70297 -3.6479,4.01267 -10.07044,14.98623 -14.37227,24.21302 -3.57196,7.66102 -13.17736,17.34366 -21.55833,21.79175 -3.64981,1.93698 -7.84684,4.43635 -9.18229,5.64968 -1.33537,1.21337 -5.07418,3.36328 -8.38377,4.84261 -3.30967,1.47936 -9.01693,4.60649 -12.37612,6.86036 -10.56208,7.08699 -19.68688,8.92777 -43.91517,8.87813 -25.44082,-0.0518 -38.56942,-2.0324 -49.9036,-7.26393 -7.03249,-3.24595 -10.54685,-5.93101 -21.55836,-17.35265 -14.96363,-15.52096 -23.26659,-26.25039 -31.9383,-41.16216 -27.11757,-46.63124 -48.07695,-63.74789 -101.0049,-83.53496 -7.82663,-2.92605 -19.34723,-4.2579 -41.12058,-4.84261 -20.58799,-0.55288 -20.75802,-0.77201 -37.52748,3.63193 -24.18611,6.35171 -37.78876,14.00973 -59.08592,31.88051 -6.58651,5.52696 -11.31625,10.83785 -18.3645,21.38818 -11.87631,17.7777 -12.71045,19.45493 -14.37223,29.86275 -2.01588,12.62487 -4.05949,36.92162 -3.19383,38.33727 0.41387,0.67683 0.9885,5.26875 1.19768,10.08877 0.20922,4.82002 1.4862,15.3568 2.79459,23.40594 3.52746,21.70083 6.20348,26.50632 24.35296,41.96925 10.57488,9.00959 16.22047,12.92711 20.36069,14.12429 3.1061,0.89814 10.39624,3.49788 16.36838,5.64968 13.54007,4.87855 23.77819,5.7955 41.51979,4.43909 16.21208,-1.23947 20.53828,-2.38186 32.73677,-8.87813 17.00824,-9.05783 26.46131,-16.16377 31.53909,-24.21302 5.56905,-8.82804 10.24826,-23.01646 12.37608,-37.12664 1.8723,-12.41608 0.85952,-17.31081 -7.58534,-33.89827 -7.07452,-13.89586 -11.22036,-18.16791 -25.55063,-25.42367 -12.31762,-6.23681 -14.5039,-6.27649 -28.7445,-4.8426 -10.95268,1.10282 -19.28301,4.10748 -27.54679,10.49229 -7.33053,5.66365 -11.07054,10.9801 -14.77147,21.38818 -2.58706,7.27603 -2.96002,16.94914 -0.79844,16.94914 0.54479,0 2.5677,-4.92228 4.79074,-10.89589 2.22289,-5.97357 5.13044,-12.38411 6.38766,-14.12426 1.25734,-1.74014 6.98627,-5.53237 12.77532,-8.47456 11.89177,-6.04383 23.29986,-8.03318 31.93829,-5.24617 4.95831,1.59971 21.91198,12.18814 26.74835,16.54558 7.77764,7.00746 12.34023,18.86274 12.37608,31.88051 0.0576,21.00191 -7.12973,36.2987 -20.75989,44.39056 -2.98599,1.77279 -7.91065,4.69165 -11.1784,6.86036 -8.38857,5.56706 -16.41742,6.96074 -35.13213,6.05325 -13.57068,-0.65802 -17.35328,-0.99038 -26.74834,-4.43904 -20.12749,-7.38817 -38.30968,-22.76733 -45.11289,-37.93376 -8.06141,-17.97145 -8.85798,-21.98132 -7.98458,-40.35508 0.76876,-16.16793 3.46675,-29.40047 7.98458,-37.93372 3.13203,-5.91553 11.14996,-15.04142 24.75219,-29.05566 5.30309,-5.46378 15.76641,-10.32575 26.74835,-12.51005 12.82735,-2.55139 42.48444,-4.23449 51.50051,-2.82485 23.5202,3.67725 63.22397,31.46613 77.05118,54.07577 6.67361,10.91227 12.96908,23.55936 15.56991,31.07339 3.42446,9.89378 4.66582,35.91517 1.99616,45.19765 -1.09023,3.79097 -1.98882,9.12317 -1.99616,11.70297 -0.015,6.14435 -2.49906,13.8113 -7.58533,24.21302 C 282.31859,415.32463 281.25374,418.69139 280,422 Z"
     style="display:inline;overflow:visible;visibility:visible;opacity:0.797468;fill:#e6e6e6;fill-opacity:1;fill-rule:nonzero;stroke:none;stroke-width:12.8443;stroke-linecap:butt;stroke-linejoin:miter;stroke-miterlimit:0;stroke-dasharray:none;stroke-dashoffset:0;stroke-opacity:1;marker:none" />
  <path
     id="path8099"
     d="m 280,422 c -0.98037,2.58718 -2.25564,5.35066 -2.79459,7.26389 -1.22822,4.35993 -2.78643,8.67909 -3.59307,9.68521 -0.80675,1.00612 -1.93215,3.70558 -2.39535,6.05328 -1.22605,6.214 -5.19953,19.19696 -6.7869,22.19526 -1.88626,3.56247 -5.67916,20.00423 -7.58533,32.68759 -1.53621,10.22179 -1.82545,32.8093 -0.39924,43.98701 1.80482,14.14476 6.81437,39.279 8.38381,42.37284 13.81355,27.23047 20.34991,36.7763 31.93829,46.00476 2.91504,2.32129 6.55126,5.70352 7.98458,7.66745 5.47039,7.49489 21.08551,18.25837 37.12827,25.82722 6.94076,3.27464 22.51075,7.33494 36.72908,9.28165 5.9721,0.81771 11.54298,1.5326 12.77532,1.6142 3.59026,0.23797 18.94092,-3.699 27.14755,-6.86033 4.15448,-1.60031 9.04212,-2.82488 10.77916,-2.82488 3.58993,0 14.86253,-6.16992 20.75993,-11.29941 2.17502,-1.89185 5.91368,-4.36708 8.38378,-5.64968 2.46994,-1.2826 8.98115,-6.1047 14.37226,-10.89589 11.92381,-10.59652 15.02048,-17.32345 21.15913,-41.96924 3.93085,-15.78132 4.22492,-17.35092 3.19383,-27.44143 -0.60164,-5.88622 -1.55338,-14.74331 -1.99615,-19.77398 -0.91895,-10.44413 -7.23419,-25.80562 -15.96915,-38.74087 -4.75511,-7.04163 -17.28161,-17.48474 -31.53909,-26.63431 -15.59102,-10.00543 -40.63369,-12.13317 -61.48123,-4.84264 -7.57329,2.64846 -10.61408,4.48505 -16.36839,10.08877 -3.89829,3.79653 -8.45017,9.49343 -9.98073,12.51009 -1.53055,3.01661 -4.73898,8.88906 -6.78689,12.91361 -3.55153,6.97908 -3.59307,7.83353 -3.59303,21.79174 0,14.03557 0.23242,14.8304 3.99226,22.59882 5.2218,10.7889 15.08456,20.36228 26.34912,25.02014 11.26171,4.65666 28.30765,5.71401 35.53136,2.42129 5.11397,-2.33102 6.56585,-4.99382 1.99615,-3.63197 -7.78164,2.31914 -16.28185,1.85766 -25.15143,-0.80708 -12.21357,-3.66942 -16.54587,-6.05154 -21.95757,-12.10653 -6.7851,-7.59155 -9.14101,-14.23003 -10.37997,-28.65207 -1.01372,-11.79974 -0.89414,-13.35076 1.99616,-22.59886 2.51777,-8.05644 3.77174,-11.02694 8.38381,-15.73845 5.19024,-5.30208 13.61481,-11.0944 19.96141,-14.52782 5.16236,-2.79268 17.4043,-3.81462 25.94988,-2.01776 4.45041,0.93571 9.26676,1.58261 10.7792,1.6142 9.08636,0.18954 32.02909,16.73697 36.72904,26.63435 1.53534,3.23317 3.94518,8.44831 5.58922,11.70297 2.25227,4.45849 3.22751,9.23875 3.99227,18.5633 1.99607,24.33878 0.98475,38.28753 -3.19383,45.19768 -0.81109,1.34154 -2.46958,5.35766 -3.59307,8.87809 -2.37885,7.45373 -10.42866,18.91949 -16.36835,23.40594 -7.92503,5.98598 -22.83513,14.92967 -29.14374,17.3527 -10.26169,3.94128 -28.07485,6.08317 -35.93056,4.43904 -3.62316,-0.75828 -7.42926,-1.97577 -8.78305,-2.82484 -1.35375,-0.84908 -5.24631,-2.02049 -8.38381,-2.42132 -8.95795,-1.1444 -23.81094,-9.30352 -27.94603,-15.33494 -1.90251,-2.77509 -6.02035,-7.00916 -9.18225,-9.68521 -3.45387,-2.92302 -6.33444,-6.67339 -7.1861,-9.28165 -1.58639,-4.85876 -8.30719,-17.41701 -12.37611,-23.00238 -3.13784,-4.30742 -6.32426,-11.34356 -7.98458,-18.15977 -1.07068,-4.39558 -1.71657,-39.25385 -1.19767,-58.91838 0.21071,-7.98418 3.25457,-17.34479 7.18609,-21.79174 1.18623,-1.34151 3.24077,-4.64905 4.79075,-7.66745 9.82409,-19.13094 22.62789,-35.7159 33.53524,-43.58348 6.44964,-4.65223 9.9841,-6.39605 21.15913,-9.28165 31.23867,-8.06635 34.26928,-8.47457 61.48124,-8.47457 27.82105,0 45.02239,-2.4966 56.29125,-8.47456 3.68712,-1.95587 11.05972,-5.48274 16.36839,-8.07101 14.49679,-7.06811 26.18057,-15.22443 35.9306,-25.02011 4.42227,-4.44301 10.05704,-10.03175 13.57379,-13.31717 z"
     style="display:inline;overflow:visible;visibility:visible;opacity:0.362869;fill:#e6e6e6;fill-opacity:1;fill-rule:nonzero;stroke:none;stroke-width:12.8443;stroke-linecap:butt;stroke-linejoin:miter;stroke-miterlimit:0;stroke-dasharray:none;stroke-dashoffset:0;stroke-opacity:1;marker:none" />
</svg>
