<?xml version="1.0" encoding="UTF-8" standalone="no"?>
<svg
   xmlns:dc="http://purl.org/dc/elements/1.1/"
   xmlns:cc="http://creativecommons.org/ns#"
   xmlns:rdf="http://www.w3.org/1999/02/22-rdf-syntax-ns#"
   xmlns:svg="http://www.w3.org/2000/svg"
   xmlns="http://www.w3.org/2000/svg"
   xmlns:sodipodi="http://sodipodi.sourceforge.net/DTD/sodipodi-0.dtd"
   xmlns:inkscape="http://www.inkscape.org/namespaces/inkscape"
   width="100%"
   height="100%"
   viewBox="0 0 328 310"
   fill="none"
   aria-labelledby="theLogoSimpleID"
   role="img"
   version="1.1"
   id="svg5"
   sodipodi:docname="trisquel_theLogo--simple.svg"
   inkscape:version="1.0.1 (3bc2e81, 2020-09-07)">
  <metadata
     id="metadata11">
    <rdf:RDF>
      <cc:Work
         rdf:about="">
        <dc:format>image/svg+xml</dc:format>
        <dc:type
           rdf:resource="http://purl.org/dc/dcmitype/StillImage" />
        <dc:title>The Simple Logo</dc:title>
      </cc:Work>
    </rdf:RDF>
  </metadata>
  <defs
     id="defs9" />
  <sodipodi:namedview
     pagecolor="#ffffff"
     bordercolor="#666666"
     borderopacity="1"
     objecttolerance="10"
     gridtolerance="10"
     guidetolerance="10"
     inkscape:pageopacity="0"
     inkscape:pageshadow="2"
     inkscape:window-width="960"
     inkscape:window-height="509"
     id="namedview7"
     showgrid="false"
     inkscape:zoom="0.70910507"
     inkscape:cx="164"
     inkscape:cy="155"
     inkscape:window-x="0"
     inkscape:window-y="270"
     inkscape:window-maximized="1"
     inkscape:current-layer="svg5" />
  <title
     id="theLogoSimpleID">The Simple Logo</title>
  <path
     id="path7116"
     d="m 133.54331,165.1345 153.50128,-34.979 c 0.17745,-0.1646 0.52152,-0.5367 0.67522,-0.67703 14.92295,-13.62441 22.54027,-30.990175 23.63289,-53.709675 0.3509,-7.29464 0.26086,-9.229572 -0.9003,-13.314566 -0.74646,-2.625711 -1.89906,-6.865133 -2.47582,-9.252515 -1.76798,-7.31709 -7.03328,-17.079188 -12.15407,-22.341426 -2.4674,-2.535529 -5.50162,-5.108996 -6.75227,-5.867441 -1.25068,-0.758458 -4.72765,-3.310914 -7.65254,-5.416103 -2.92496,-2.105203 -6.30131,-4.074698 -7.65256,-4.513417 -1.35124,-0.438712 -4.32446,-1.805454 -6.52718,-3.159393 -3.82405,-2.3504518 -4.36049,-2.6952828 -12.15403,-3.1593938 -7.7608,-0.462167 -8.66108,-0.288554 -17.10573,1.8053678 -4.88485,1.211235 -10.56814,3.105658 -12.60421,4.062077 -2.0362,0.956418 -5.46772,2.424362 -7.65257,3.385062 -2.34426,1.030844 -4.08056,2.182653 -4.27642,2.933722 -0.18252,0.699977 -1.42062,1.870261 -2.7009,2.482381 -1.28017,0.61212 -2.25074,1.431823 -2.25075,1.805369 0,0.373542 -1.21475,1.270807 -2.70091,2.031038 -2.18642,1.118357 -3.18562,2.371894 -4.95165,6.093117 -1.20055,2.529511 -2.76118,5.291013 -3.60121,6.318784 -0.84002,1.02776 -2.03547,3.706875 -2.47583,5.867439 -0.44032,2.160566 -1.10165,4.402116 -1.57552,4.964775 -1.70581,2.025408 -1.70064,9.455885 0,18.504995 1.42753,7.595588 1.86488,9.270908 4.95167,14.668608 3.75742,6.57027 8.01663,10.73545 14.62989,14.89428 5.45517,3.430575 14.12785,5.006275 20.93198,3.836415 8.35978,-1.43735 13.24414,-3.912735 18.23109,-9.026835 6.46364,-6.62847 8.92033,-11.46457 9.45317,-19.85906 0.48543,-7.646223 -0.73925,-12.340925 -4.05137,-16.925297 -2.15963,-2.989219 -8.85098,-7.904512 -9.22808,-6.770139 -0.12998,0.391011 0.79869,2.029727 2.25076,3.61073 1.45206,1.581025 3.67345,4.754136 4.95164,6.995816 2.03638,3.571554 2.4613,4.609848 2.70089,9.70384 0.23828,5.06782 0.11247,6.43381 -1.35043,9.70386 -3.25182,7.2686 -9.64525,12.45424 -18.68124,15.57129 -4.57012,1.57651 -8.08482,1.72748 -15.30511,0.45133 -6.20505,-1.09672 -9.72228,-3.03111 -13.05437,-7.22146 -2.48542,-3.12568 -3.34535,-4.57042 -5.85196,-10.60653 -4.40608,-10.610393 -4.81457,-15.568535 -2.02566,-21.890092 0.73137,-1.657778 1.35044,-4.087791 1.35044,-5.19043 0,-1.856599 2.78307,-6.589645 4.27642,-7.221461 1.07805,-0.456046 4.50152,-4.383951 4.50152,-5.190429 0,-0.769866 3.2346,-3.400322 10.57853,-8.80117 7.77117,-5.715024 17.58353,-7.994134 31.06036,-6.770125 6.48471,0.58897 8.2282,1.10245 12.37914,3.159394 11.44478,5.671315 21.50438,17.424424 23.40781,27.531845 0.53615,2.847244 1.44287,6.091516 2.02568,7.221472 1.43049,2.773592 0.62165,11.018466 -1.35045,14.894276 -0.78477,1.54233 -1.6492,4.96384 -2.02566,7.44715 -0.51159,3.37554 -1.29895,5.01487 -2.7009,6.54445 -2.0566,2.24395 -5.67746,8.38051 -8.10273,13.540265 -2.01378,4.28414 -7.42906,9.69881 -12.15404,12.18624 -2.05767,1.08319 -4.42385,2.48087 -5.17675,3.15937 -0.75284,0.67853 -2.86069,1.88079 -4.72654,2.70806 -1.86592,0.82728 -5.08353,2.576 -6.97735,3.8364 -5.95465,3.96313 -11.09898,4.99253 -24.75827,4.96477 -14.34292,-0.0289 -21.74449,-1.13655 -28.13439,-4.06208 -3.96475,-1.81519 -5.94605,-3.31671 -12.15406,-9.70384 -8.43614,-8.67953 -13.11712,-14.67957 -18.00601,-23.018445 C 149.76564,67.294325 137.94925,57.722454 108.10983,46.657263 103.69735,45.02097 97.20235,44.276184 84.927084,43.94921 73.320076,43.640027 73.224235,43.517487 63.770011,45.980231 50.13452,49.532185 42.465682,53.814665 30.458902,63.808238 c -3.713324,3.090757 -6.379823,6.060667 -10.353457,11.960557 -6.695565,9.94154 -7.165833,10.87947 -8.102707,16.69965 -1.13649,7.06 -2.2886222,20.647085 -1.800602,21.438745 0.23333,0.37848 0.557294,2.94635 0.675226,5.64176 0.117931,2.69542 0.837885,8.58773 1.575526,13.08893 1.988692,12.13539 3.497353,14.82268 13.72957,23.46975 5.961864,5.0383 9.144698,7.22903 11.478854,7.8985 1.751139,0.50226 5.86114,1.95606 9.228079,3.15939 7.633551,2.72814 13.405547,3.24091 23.407801,2.4824 9.139974,-0.69314 11.57898,-1.33198 18.456167,-4.96478 9.588833,-5.06526 14.918231,-9.03899 17.780951,-13.54024 3.13969,-4.93677 5.77771,-12.87112 6.97732,-20.76172 1.05557,-6.94324 0.48457,-9.68044 -4.27642,-18.95638 -3.98844,-7.77074 -6.32576,-10.15974 -14.404819,-14.217255 -6.944345,-3.48771 -8.176931,-3.50991 -16.20541,-2.70806 -6.174865,0.61671 -10.87127,2.29697 -15.53018,5.867435 -4.132771,3.1672 -6.241286,6.14024 -8.32778,11.96057 -1.458526,4.06885 -1.668787,9.47818 -0.45015,9.47818 0.307141,0 1.447609,-2.75261 2.700907,-6.09312 1.253213,-3.34051 2.892411,-6.92537 3.601196,-7.89847 0.70885,-0.97312 3.938693,-3.09378 7.202401,-4.73909 6.704289,-3.379805 13.135882,-4.492285 18.006008,-2.93374 2.795372,0.89459 12.353427,6.81577 15.080047,9.25251 4.38484,3.91867 6.95709,10.5483 6.97732,17.82801 0.0326,11.74456 -4.01956,20.29874 -11.703901,24.82381 -1.683428,0.99136 -4.459828,2.62363 -6.302102,3.8364 -4.729259,3.11317 -9.255732,3.89255 -19.806634,3.38507 -7.650792,-0.36798 -9.783321,-0.55384 -15.080013,-2.48238 -11.34737,-4.13156 -21.598035,-12.73181 -25.433488,-21.21307 -4.544836,-10.04987 -4.993938,-12.29224 -4.501514,-22.5671 0.433405,-9.04132 1.954449,-16.441145 4.501514,-21.213065 1.765732,-3.30804 6.28604,-8.41136 13.954634,-16.24832 2.989749,-3.05541 8.888701,-5.7743 15.08005,-6.99578 7.231729,-1.426774 23.95165,-2.367981 29.034685,-1.579688 13.260109,2.056364 35.644079,17.596278 43.439509,30.239898 3.76241,6.102295 7.31164,13.174715 8.77792,17.376665 1.93063,5.53273 2.63048,20.08424 1.12539,25.27513 -0.61467,2.11996 -1.12126,5.1018 -1.12539,6.54446 -0.008,3.436 -1.40892,7.72347 -4.27641,13.54025 -0.71852,1.45749 -1.31885,3.34022 -2.02569,5.19045 z"
     style="display:inline;overflow:visible;visibility:visible;opacity:0.797468;fill:#3e3e3e;fill-opacity:1;fill-rule:nonzero;stroke:none;stroke-width:7.21193;stroke-linecap:butt;stroke-linejoin:miter;stroke-miterlimit:0;stroke-dasharray:none;stroke-dashoffset:0;stroke-opacity:1;marker:none" />
  <path
     id="path8099"
     d="m 133.54331,165.1345 c -0.5527,1.44677 -1.27168,2.99215 -1.57551,4.06206 -0.69244,2.43813 -1.57092,4.85346 -2.02569,5.41609 -0.45482,0.56265 -1.08929,2.07222 -1.35044,3.38508 -0.69123,3.47496 -2.93135,10.7352 -3.82628,12.41189 -1.06343,1.99218 -3.20176,11.18663 -4.27644,18.27934 -0.86605,5.71617 -1.02912,18.34742 -0.22505,24.59814 1.01751,7.90994 3.84176,21.96535 4.72655,23.69546 7.78776,15.22764 11.47279,20.56581 18.00604,25.72648 1.64341,1.2981 3.69342,3.18948 4.50149,4.28773 3.08407,4.19125 11.88748,10.21034 20.932,14.44294 3.91302,1.83122 12.69098,4.1018 20.7069,5.19043 3.36693,0.45727 6.50767,0.85705 7.20239,0.90268 2.02413,0.13307 10.67844,-2.06853 15.30513,-3.83639 2.34219,-0.89491 5.0977,-1.57971 6.07702,-1.57971 2.02391,0 8.37912,-3.45031 11.70393,-6.31879 1.22622,-1.05794 3.33398,-2.44213 4.72655,-3.15937 1.3925,-0.71725 5.06336,-3.41384 8.10273,-6.09313 6.72235,-5.92572 8.46817,-9.68751 11.92899,-23.46976 2.21611,-8.82514 2.3819,-9.70288 1.80059,-15.34563 -0.33919,-3.29165 -0.87576,-8.24465 -1.12537,-11.05787 -0.51809,-5.8405 -4.07846,-14.43085 -9.003,-21.66442 -2.68081,-3.93777 -9.74294,-9.7777 -17.78096,-14.89426 -8.78982,-5.59517 -22.90824,-6.78503 -34.66157,-2.70807 -4.26961,1.48105 -5.98395,2.5081 -9.22807,5.64176 -2.19777,2.12308 -4.764,5.30887 -5.62689,6.99583 -0.86289,1.68692 -2.67172,4.97087 -3.82627,7.22146 -2.00228,3.9028 -2.02569,4.38062 -2.02569,12.18623 0,7.84888 0.13104,8.29336 2.25077,12.63757 2.94391,6.0333 8.50428,11.38685 14.85496,13.9916 6.34907,2.60407 15.95913,3.19535 20.03168,1.35402 2.88312,-1.30354 3.70164,-2.79261 1.12535,-2.03104 -4.38706,1.29688 -9.17928,1.03882 -14.17971,-0.45133 -6.88573,-2.052 -9.32815,-3.38412 -12.37913,-6.77015 -3.82527,-4.24529 -5.15346,-7.95762 -5.85196,-16.02262 -0.57151,-6.59857 -0.5041,-7.46592 1.12538,-12.63759 1.41946,-4.50527 2.12641,-6.1664 4.72658,-8.80116 2.92611,-2.96499 7.6757,-6.20412 11.25375,-8.12415 2.91038,-1.56169 9.8121,-2.13318 14.62988,-1.12835 2.50903,0.52326 5.22435,0.88502 6.07704,0.90269 5.12267,0.10599 18.0572,9.35953 20.70691,14.89428 0.86559,1.80804 2.2242,4.72441 3.15106,6.54445 1.26978,2.49326 1.8196,5.16644 2.25073,10.38086 1.12535,13.61057 0.5552,21.4109 -1.80059,25.27515 -0.45727,0.75021 -1.39228,2.99607 -2.02568,4.96474 -1.34113,4.16823 -5.87941,10.58004 -9.22806,13.08892 -4.46793,3.34745 -12.87389,8.34888 -16.4305,9.70386 -5.78529,2.20402 -15.8279,3.40179 -20.25677,2.48238 -2.04265,-0.42404 -4.18842,-1.10487 -4.95164,-1.57969 -0.76323,-0.47481 -2.95774,-1.12989 -4.72658,-1.35405 -5.05027,-0.63995 -13.42402,-5.20264 -15.75527,-8.57549 -1.07261,-1.55187 -3.39413,-3.91962 -5.17672,-5.4161 -1.94721,-1.63458 -3.5712,-3.73186 -4.05136,-5.19042 -0.89436,-2.71708 -4.68337,-9.73983 -6.97732,-12.86324 -1.76905,-2.40877 -3.56548,-6.34347 -4.50151,-10.15519 -0.60365,-2.45807 -0.96775,-21.95128 -0.67523,-32.94796 0.11881,-4.46485 1.83486,-9.69944 4.05135,-12.18623 0.66875,-0.7502 1.82706,-2.59982 2.70091,-4.28775 5.53857,-10.69827 12.75703,-19.9728 18.90632,-24.37246 3.63612,-2.6016 5.62878,-3.57677 11.92896,-5.19042 17.61159,-4.51082 19.32018,-4.73909 34.66159,-4.73909 15.68481,0 25.38249,-1.39614 31.73559,-4.73911 2.07871,-1.09374 6.2352,-3.06601 9.22809,-4.51341 8.17293,-3.95258 14.75995,-8.5137 20.25677,-13.99158 2.49316,-2.48459 5.6699,-5.6099 7.65256,-7.44714 z"
     style="display:inline;overflow:visible;visibility:visible;opacity:0.8;fill:#3e3e3e;fill-opacity:1;fill-rule:nonzero;stroke:none;stroke-width:7.21193;stroke-linecap:butt;stroke-linejoin:miter;stroke-miterlimit:0;stroke-dasharray:none;stroke-dashoffset:0;stroke-opacity:1;marker:none" />
</svg>
